<svg id="Layer_1" enable-background="new 0 0 512 512" height="512" viewBox="0 0 512 512" width="512"
    xmlns="http://www.w3.org/2000/svg" style="fill: #ffffff; margin-top: 2px;">
    <defs>
     <filter id="shadowlens" x="0" y="0"  width="512" height="512">
            <feOffset result="offOut" in="SourceAlpha" dx="-20" dy="20"/>
            <feGaussianBlur result="blurOut" in="offOut" stdDeviation="50" />
            <feBlend in="SourceGraphic" in2="blurOut" mode="normal" />
        </filter>
    </defs>
    <g filter="url(#shadowlens)">
        <path
            d="m106.938 101.455c4.143 0 7.5-3.358 7.5-7.5v-78.955h18.709l25.707 34.903c1.414 1.919 3.655 3.052 6.039 3.052h121.403c4.143 0 7.5-3.358 7.5-7.5s-3.357-7.5-7.5-7.5h-117.612l-25.707-34.903c-1.414-1.919-3.656-3.052-6.039-3.052h-30c-4.143 0-7.5 3.358-7.5 7.5v86.455c0 4.142 3.357 7.5 7.5 7.5z" />
        <path
            d="m405.063 0h-30c-2.384 0-4.625 1.133-6.039 3.052l-25.707 34.903h-22.808c-4.143 0-7.5 3.358-7.5 7.5s3.357 7.5 7.5 7.5h26.599c2.384 0 4.625-1.133 6.039-3.052l25.707-34.903h18.709v136.769c0 1.732-1.409 3.142-3.142 3.142h-276.842c-1.732 0-3.142-1.409-3.142-3.142v-22.579c0-4.142-3.357-7.5-7.5-7.5s-7.5 3.358-7.5 7.5v22.579c0 10.003 8.139 18.142 18.142 18.142h1.858v160.512c0 .042.001.084.002.126v.028c.015.731.134 1.436.344 2.101l9.655 33.371v93.184c0 10.003 8.139 18.141 18.142 18.141h1.858v27.126c0 4.143 3.357 7.5 7.5 7.5h198.125c4.143 0 7.5-3.357 7.5-7.5v-27.125h1.858c10.003 0 18.142-8.138 18.142-18.141v-12.669c0-4.142-3.357-7.5-7.5-7.5s-7.5 3.358-7.5 7.5v12.669c0 1.732-1.409 3.141-3.142 3.141h-216.842c-1.732 0-3.142-1.409-3.142-3.141v-86.746h223.125v39.644c0 4.142 3.357 7.5 7.5 7.5s7.5-3.358 7.5-7.5v-46.082l9.655-33.371c.209-.665.329-1.37.344-2.101 0-.009 0-.019 0-.028.001-.042.002-.084.002-.126v-160.513h1.858c10.003 0 18.142-8.138 18.142-18.142v-144.269c0-4.142-3.358-7.5-7.5-7.5zm-172.859 497v-19.625h47.592v19.625zm115.359 0h-52.767v-19.625h52.767zm-130.359-19.625v19.625h-52.767v-19.625zm160.359-154.452h-243.125v-118.012h243.125zm-178.572-133.012v-20h49.509v20zm64.509 0v-20h49.509v20zm-79.509-20v20h-49.554v-20zm-41.416 187.577-5.66-19.565h238.17l-5.66 19.565zm234.988-167.577h-49.554v-20h49.554z" />
        <path
            d="m162 302.556h20.384c4.143 0 7.5-3.358 7.5-7.5s-3.357-7.5-7.5-7.5h-12.884v-47.592h103v47.592h-55.232c-4.143 0-7.5 3.358-7.5 7.5s3.357 7.5 7.5 7.5h62.732c4.143 0 7.5-3.358 7.5-7.5v-62.592c0-4.142-3.357-7.5-7.5-7.5h-118c-4.143 0-7.5 3.358-7.5 7.5v62.592c0 4.142 3.357 7.5 7.5 7.5z" />
        <path
            d="m309.851 302.556h40.592c4.143 0 7.5-3.358 7.5-7.5v-62.592c0-4.142-3.357-7.5-7.5-7.5h-40.592c-4.143 0-7.5 3.358-7.5 7.5v62.592c0 4.142 3.357 7.5 7.5 7.5zm7.5-62.592h25.592v47.592h-25.592z" />
        <path
            d="m182.384 409.932c-4.143 0-7.5 3.358-7.5 7.5s3.357 7.5 7.5 7.5h147.232c4.143 0 7.5-3.358 7.5-7.5s-3.357-7.5-7.5-7.5z" />
    </g>
</svg>