<svg id="Capa_1" enable-background="new 0 0 512 512" height="512" viewBox="0 0 512 512" width="512"
    xmlns="http://www.w3.org/2000/svg" style="fill: #ffffff; margin-top: 2px;">
    <defs>
        <filter id="shadowCamera" x="0" y="0"  width="512" height="512">
            <feOffset result="offOut" in="SourceAlpha" dx="-40" dy="40"/>
            <feGaussianBlur result="blurOut" in="offOut" stdDeviation="50" />
            <feBlend in="SourceGraphic" in2="blurOut" mode="normal" />
        </filter>
    </defs>
    <g filter="url(#shadowCamera)">
        <g >
            <path
                d="m346.616 245.338c-2.609-3.219-7.332-3.712-10.549-1.104s-3.711 7.332-1.103 10.549c14.597 18.007 22.636 40.682 22.636 63.848 0 56.022-45.578 101.601-101.6 101.601s-101.6-45.578-101.6-101.601 45.578-101.6 101.6-101.6c19.482 0 38.413 5.55 54.744 16.048 3.482 2.237 8.124 1.232 10.364-2.253 2.24-3.484 1.231-8.125-2.253-10.364-18.755-12.057-40.49-18.43-62.855-18.43-64.293 0-116.6 52.307-116.6 116.6 0 64.294 52.307 116.601 116.6 116.601s116.6-52.307 116.6-116.601c0-26.595-9.228-52.625-25.984-73.294z" />
            <path
                d="m188.396 282.771c0 17.504 14.24 31.744 31.744 31.744s31.744-14.24 31.744-31.744-14.24-31.744-31.744-31.744-31.744 14.24-31.744 31.744zm48.487 0c0 9.232-7.511 16.744-16.744 16.744-9.232 0-16.744-7.512-16.744-16.744s7.511-16.744 16.744-16.744 16.744 7.512 16.744 16.744z" />
            <path
                d="m464.09 109.101h-14.72v-14.726c0-9.705-7.896-17.602-17.602-17.602h-28.284c-9.706 0-17.602 7.896-17.602 17.602v14.726h-40.392l-21.877-43.755c-6.445-12.89-19.401-20.897-33.813-20.897h-67.598c-14.412 0-27.369 8.008-33.813 20.897l-21.877 43.755h-36.352v-14.726c0-9.705-7.896-17.602-17.602-17.602h-44.448c-9.706 0-17.602 7.896-17.602 17.602v14.726h-2.598c-26.418 0-47.91 21.488-47.91 47.9v262.65c0 26.412 21.492 47.899 47.91 47.899h338.59c4.142 0 7.5-3.357 7.5-7.5s-3.358-7.5-7.5-7.5h-65.4c21.719-10.601 40.491-26.332 54.734-45.606h121.166v12.707c0 18.141-14.763 32.899-32.91 32.899h-42.59c-4.142 0-7.5 3.357-7.5 7.5s3.358 7.5 7.5 7.5h42.59c26.418 0 47.91-21.487 47.91-47.899v-262.65c0-26.412-21.492-47.9-47.91-47.9zm-63.208-14.726c0-1.435 1.167-2.602 2.602-2.602h28.284c1.435 0 2.602 1.167 2.602 2.602v14.724h-33.488zm-335.374 0c0-1.435 1.167-2.602 2.602-2.602h44.447c1.435 0 2.602 1.167 2.602 2.602v14.724h-49.65v-14.724zm136.296-22.32c3.888-7.776 11.704-12.606 20.397-12.606h67.598c8.694 0 16.509 4.83 20.397 12.606l18.523 37.046h-19.595l-14.091-28.182c-1.27-2.54-3.867-4.146-6.708-4.146h-64.65c-2.841 0-5.438 1.605-6.708 4.146l-14.091 28.182h-19.595zm90.55 37.046h-72.707l8.664-17.327h55.38zm-244.444 15h416.18c18.147 0 32.91 14.759 32.91 32.9v12.71h-414.09c-4.142 0-7.5 3.357-7.5 7.5s3.358 7.5 7.5 7.5h107.99c-49.582 24.2-83.823 75.134-83.823 133.92 0 26.636 7.036 51.657 19.336 73.313h-111.413v-207.233h32.91c4.142 0 7.5-3.357 7.5-7.5s-3.358-7.5-7.5-7.5h-32.91v-12.71c0-18.141 14.763-32.9 32.91-32.9zm0 328.45c-18.147 0-32.91-14.759-32.91-32.899v-12.707h121.167c14.243 19.275 33.014 35.006 54.734 45.606zm208.321 0c-72.891-.981-134.154-60.183-134.154-133.92 0-73.769 59.953-133.795 133.692-133.92h.461c73.739.125 133.692 60.151 133.692 133.92s-59.952 133.795-133.691 133.92zm129.356-60.606c12.301-21.657 19.336-46.678 19.336-73.313 0-58.786-34.241-109.72-83.823-133.92h175.9v207.233z" />
        </g>
    </g>
</svg>