<svg id="Capa_1" enable-background="new 0 0 512 512" height="512" viewBox="0 0 512 512" width="512" xmlns="http://www.w3.org/2000/svg" style="fill: #ffffff; margin-top: 2px;"><g><path d="m489.085 321.591c-7.832-3.467-15.264-7.827-22.089-12.957-3.31-2.488-8.013-1.822-10.501 1.49-2.488 3.311-1.822 8.013 1.49 10.501 7.735 5.813 16.156 10.753 25.029 14.681 6.191 2.741 10.773 7.967 12.811 14.193h-73.792v-70.889c2.898 5.417 6.184 10.665 9.888 15.693 1.47 1.996 3.742 3.052 6.044 3.052 1.545 0 3.104-.476 4.443-1.462 3.334-2.457 4.046-7.152 1.589-10.486-14.369-19.504-21.964-42.614-21.964-66.832 0-2.295 0-56.336 0-58.575 0-9.649-7.851-17.5-17.5-17.5h-181.717c.289-.091.185-14.345.2-15.101 6.179-.752 10.984-6.021 10.984-12.399v-20c0-6.893-5.607-12.5-12.5-12.5h-46.5v-37.5c0-9.649-7.851-17.5-17.5-17.5h-75c-9.649 0-17.5 7.851-17.5 17.5v37.5h-52.5c-6.893 0-12.5 5.607-12.5 12.5v20c0 6.39 4.822 11.666 11.016 12.404v12.596c0 7.346 4.555 13.637 10.984 16.229v38.771c0 4.142 3.358 7.5 7.5 7.5s7.5-3.358 7.5-7.5v-37.5h160.032v252h-160.032v-179.436c0-4.142-3.358-7.5-7.5-7.5s-7.5 3.358-7.5 7.5v180.707c-6.429 2.591-10.984 8.883-10.984 16.229v12.596c-6.194.738-11.016 6.014-11.016 12.404v20c0 6.893 5.607 12.5 12.5 12.5h209c6.893 0 12.5-5.607 12.5-12.5v-20c0-6.378-4.805-11.647-10.984-12.399-.143-6.067.301-9.335-.2-15.101h53.162c4.142 0 7.5-3.358 7.5-7.5s-3.358-7.5-7.5-7.5h-63.947v-45h284.969v42.5c0 1.378-1.122 2.5-2.5 2.5h-183.415c-4.142 0-7.5 3.358-7.5 7.5s3.358 7.5 7.5 7.5h183.415c9.649 0 17.5-7.851 17.5-17.5v-50.205c0-15.223-8.995-29.042-22.915-35.204zm-82.053 27.909h-129.032v-132h129.032zm0-189.5v42.5h-195v-45h192.5c1.378 0 2.5 1.122 2.5 2.5zm-327.032-115c0-1.378 1.122-2.5 2.5-2.5h75c1.378 0 2.5 1.122 2.5 2.5v37.5h-80zm-65 52.5h204v15h-55.191c-4.142 0-7.5 3.358-7.5 7.5s3.358 7.5 7.5 7.5h44.208v12.5c0 1.378-1.122 2.5-2.5 2.5-1.863 0-175.514 0-177 0-1.378 0-2.5-1.122-2.5-2.5v-12.5h102.473c4.142 0 7.5-3.358 7.5-7.5s-3.358-7.5-7.5-7.5h-113.49zm204 372h-204v-15h204zm-10.984-42.5v12.5h-182v-12.5c0-1.378 1.122-2.5 2.5-2.5h177c1.379 0 2.5 1.122 2.5 2.5zm4.016-209.5h50.968v132h-50.968z"/><path d="m235.032 187.5h14c4.142 0 7.5-3.358 7.5-7.5s-3.358-7.5-7.5-7.5h-14c-4.142 0-7.5 3.358-7.5 7.5s3.358 7.5 7.5 7.5z"/><path d="m280.032 187.5h14c4.142 0 7.5-3.358 7.5-7.5s-3.358-7.5-7.5-7.5h-14c-4.142 0-7.5 3.358-7.5 7.5s3.358 7.5 7.5 7.5z"/><path d="m325.032 187.5h14c4.142 0 7.5-3.358 7.5-7.5s-3.358-7.5-7.5-7.5h-14c-4.142 0-7.5 3.358-7.5 7.5s3.358 7.5 7.5 7.5z"/><path d="m370.032 187.5h14c4.142 0 7.5-3.358 7.5-7.5s-3.358-7.5-7.5-7.5h-14c-4.142 0-7.5 3.358-7.5 7.5s3.358 7.5 7.5 7.5z"/><path d="m235.032 379.5c-4.142 0-7.5 3.358-7.5 7.5s3.358 7.5 7.5 7.5h14c4.142 0 7.5-3.358 7.5-7.5s-3.358-7.5-7.5-7.5z"/><path d="m294.032 379.5h-14c-4.142 0-7.5 3.358-7.5 7.5s3.358 7.5 7.5 7.5h14c4.142 0 7.5-3.358 7.5-7.5s-3.358-7.5-7.5-7.5z"/><path d="m339.032 394.5c4.142 0 7.5-3.358 7.5-7.5s-3.358-7.5-7.5-7.5h-14c-4.142 0-7.5 3.358-7.5 7.5s3.358 7.5 7.5 7.5z"/><path d="m384.032 394.5c4.142 0 7.5-3.358 7.5-7.5s-3.358-7.5-7.5-7.5h-14c-4.142 0-7.5 3.358-7.5 7.5s3.358 7.5 7.5 7.5z"/><path d="m429.032 394.5c4.142 0 7.5-3.358 7.5-7.5s-3.358-7.5-7.5-7.5h-14c-4.142 0-7.5 3.358-7.5 7.5s3.358 7.5 7.5 7.5z"/><path d="m474.032 394.5c4.142 0 7.5-3.358 7.5-7.5s-3.358-7.5-7.5-7.5h-14c-4.142 0-7.5 3.358-7.5 7.5s3.358 7.5 7.5 7.5z"/></g></svg>